<svg width="826" xmlns:xlink="http://www.w3.org/1999/xlink" xmlns="http://www.w3.org/2000/svg" xmlns:ev="http://www.w3.org/2001/xml-events" viewBox="0 0 826 1066" height="1066"><defs><marker refX="5" refY="3" markerWidth="8" id="edrawArrow_end_4_0.96_#000000" ed:arrow="4" markerHeight="8" orient="auto" markerUnits="userSpaceOnUse"><path fill="#000000" stroke-width="1" stroke-linecap="round" stroke="#000000" d="M1.0,1.0L5.0,3.0L1.0,5.0L1.0,1.0"/></marker></defs><g id="page1" transform="translate(5.500000,5.500000)"><rect x="0" y="0" width="816" fill="#ffffff" height="1056"/><path stroke-width="0.95999997854232788" fill="none" id="shape1" stroke-linecap="round" stroke="#000000" d="M.0,96.0L144.0,96.0L144.0,.0L.0,.0L.0,96.0z" transform="translate(408.000000,24.000000)"/><g id="shape2" transform="translate(408.000000,192.000000)"><path stroke-width="0.95999997854232788" fill="none" stroke-linecap="round" stroke="#000000" d="M.0,48.0L115.2,48.0L115.2,.0L.0,.0L.0,48.0z"/><text style="font-family:Microsoft YaHei UI,PingFang SC,Mircrosoft YaHei,Arial;font-size:12px" xml:space="preserve"><tspan style="font-size:10px" x="48.1" textLength="19.1" y="27.9">Text</tspan></text></g><g id="shape3" transform="translate(408.000000,144.000000)"><path stroke-width="0.95999997854232788" fill="none" stroke-linecap="round" marker-end="url(#edrawArrow_end_4_0.96_#000000)" stroke="#000000" d="M.0,.0L.0,48.0"/></g><path stroke-width="0.95999997854232788" fill="none" id="shape4" stroke-linecap="round" stroke="#000000" d="M.0,96.0L96.0,96.0L96.0,.0L.0,.0L.0,96.0z" transform="translate(408.000000,264.000000)"/><g id="shape5" transform="translate(408.000000,240.000000)"><path stroke-width="0.95999997854232788" fill="none" stroke-linecap="round" marker-end="url(#edrawArrow_end_4_0.96_#000000)" stroke="#000000" d="M.0,.0L.0,24.0L.0,24.0L.0,48.0"/></g><path stroke-width="0.95999997854232788" fill="none" id="shape6" stroke-linecap="round" stroke="#000000" d="M72.0,.0L144.0,48.0L72.0,96.0L.0,48.0L72.0,.0z" transform="translate(408.000000,408.000000)"/><g id="shape7" transform="translate(408.000000,384.000000)"><path stroke-width="0.95999997854232788" fill="none" stroke-linecap="round" marker-end="url(#edrawArrow_end_4_0.96_#000000)" stroke="#000000" d="M.0,.0L.0,24.0L.0,24.0L.0,48.0"/></g><path stroke-width="0.95999997854232788" fill="none" id="shape8" stroke-linecap="round" stroke="#000000" d="M36.0,.0L144.0,.0L108.0,96.0L.0,96.0L36.0,.0z" transform="translate(408.000000,552.000000)"/><g id="shape9" transform="translate(408.000000,528.000000)"><path stroke-width="0.95999997854232788" fill="none" stroke-linecap="round" marker-end="url(#edrawArrow_end_4_0.96_#000000)" stroke="#000000" d="M.0,.0L.0,24.0L.0,24.0L.0,48.0"/></g><g id="shape10" transform="translate(480.000000,432.000000)"><path stroke-width="0.95999997854232788" fill="none" stroke-linecap="round" marker-end="url(#edrawArrow_end_4_0.96_#000000)" stroke="#000000" d="M.0,.0L.0,72.0L.0,72.0L.0,144.0"/></g><path stroke-width="0.95999997854232788" fill="none" id="shape11" stroke-linecap="round" stroke="#000000" d="M96.0,48.0C96.0,74.5,74.5,96.0,48.0,96.0C21.5,96.0,.0,74.5,.0,48.0C.0,21.5,21.5,.0,48.0,.0C74.5,.0,96.0,21.5,96.0,48.0z" transform="translate(408.000000,744.000000)"/><g id="shape12" transform="translate(408.000000,648.000000)"><path stroke-width="0.95999997854232788" fill="none" stroke-linecap="round" marker-end="url(#edrawArrow_end_4_0.96_#000000)" stroke="#000000" d="M.0,.0L.0,48.0L.0,48.0L.0,96.0"/></g></g></svg>