<svg width="1290" xmlns:xlink="http://www.w3.org/1999/xlink" xmlns="http://www.w3.org/2000/svg" xmlns:ev="http://www.w3.org/2001/xml-events" viewBox="0 0 1290 730" height="730"><defs><linearGradient id="lg1" gradientUnits="userSpaceOnUse" y1="-0" y2="37" x1="0" x2="37"><stop offset="0.00" stop-color="#6a11cb"/><stop offset="1.00" stop-color="#2575fc"/></linearGradient><linearGradient id="lg2" y1="0%" y2="100%" x1="0%" x2="0%"><stop offset="0.00" stop-color="#a78bfa"/><stop offset="1.00" stop-color="#8b5cf6"/></linearGradient><marker refX="6.6568542494923806" refY="6.6568542494923806" markerWidth="15.313708498984761" id="edrawArrow_end_19_2_#8bc348" ed:arrow="19" markerHeight="15.313708498984761" orient="auto" markerUnits="userSpaceOnUse"><path fill="#8bc348" stroke-width="1" stroke-linecap="round" stroke="#8bc348" d="M12.3,6.7C12.3,9.8,9.8,12.3,6.7,12.3C3.5,12.3,1.0,9.8,1.0,6.7C1.0,3.5,3.5,1.0,6.7,1.0C9.8,1.0,12.3,3.5,12.3,6.7"/></marker><marker refX="6.6568542494923806" refY="6.6568542494923806" markerWidth="15.313708498984761" id="edrawArrow_end_19_2_#019587" ed:arrow="19" markerHeight="15.313708498984761" orient="auto" markerUnits="userSpaceOnUse"><path fill="#019587" stroke-width="1" stroke-linecap="round" stroke="#019587" d="M12.3,6.7C12.3,9.8,9.8,12.3,6.7,12.3C3.5,12.3,1.0,9.8,1.0,6.7C1.0,3.5,3.5,1.0,6.7,1.0C9.8,1.0,12.3,3.5,12.3,6.7"/></marker><marker refX="6.6568542494923806" refY="6.6568542494923806" markerWidth="15.313708498984761" id="edrawArrow_end_19_2_#0a73c4" ed:arrow="19" markerHeight="15.313708498984761" orient="auto" markerUnits="userSpaceOnUse"><path fill="#0a73c4" stroke-width="1" stroke-linecap="round" stroke="#0a73c4" d="M12.3,6.7C12.3,9.8,9.8,12.3,6.7,12.3C3.5,12.3,1.0,9.8,1.0,6.7C1.0,3.5,3.5,1.0,6.7,1.0C9.8,1.0,12.3,3.5,12.3,6.7"/></marker><marker refX="6.6568542494923806" refY="6.6568542494923806" markerWidth="15.313708498984761" id="edrawArrow_end_19_2_#2196f4" ed:arrow="19" markerHeight="15.313708498984761" orient="auto" markerUnits="userSpaceOnUse"><path fill="#2196f4" stroke-width="1" stroke-linecap="round" stroke="#2196f4" d="M12.3,6.7C12.3,9.8,9.8,12.3,6.7,12.3C3.5,12.3,1.0,9.8,1.0,6.7C1.0,3.5,3.5,1.0,6.7,1.0C9.8,1.0,12.3,3.5,12.3,6.7"/></marker><marker refX="9.4852813742385713" refY="5.2426406871192857" markerWidth="12.485281374238571" id="edrawArrow_end_4_2_#89a3fe" ed:arrow="4" markerHeight="12.485281374238571" orient="auto" markerUnits="userSpaceOnUse"><path fill="#89a3fe" stroke-width="1" stroke-linecap="round" stroke="#89a3fe" d="M1.0,1.0L9.5,5.2L1.0,9.5L1.0,1.0"/></marker><marker refX="1" refY="5.2426406871192857" markerWidth="12.485281374238571" id="edrawArrow_begin_4_2_#0462be" ed:arrow="4" markerHeight="12.485281374238571" orient="auto" markerUnits="userSpaceOnUse"><path fill="#0462be" stroke-width="1" stroke-linecap="round" stroke="#0462be" d="M9.5,9.5L1.0,5.2L9.5,1.0L9.5,9.5"/></marker><marker refX="6.6568542494923806" refY="6.6568542494923806" markerWidth="15.313708498984761" id="edrawArrow_end_19_2_#9770f8" ed:arrow="19" markerHeight="15.313708498984761" orient="auto" markerUnits="userSpaceOnUse"><path fill="#9770f8" stroke-width="1" stroke-linecap="round" stroke="#9770f8" d="M12.3,6.7C12.3,9.8,9.8,12.3,6.7,12.3C3.5,12.3,1.0,9.8,1.0,6.7C1.0,3.5,3.5,1.0,6.7,1.0C9.8,1.0,12.3,3.5,12.3,6.7"/></marker></defs><g id="page1" transform="translate(5.500000,5.500000)"><rect x="0" y="0" width="1280" fill="#ffffff" height="720"/><g id="group1" transform="translate(442.223000,133.952500)"><path fill="#1b5b84" id="shape2" fill-rule="nonzero" d="M14.2,.0C14.2,.0,10.8,15.8,18.5,17.6C26.2,19.5,.0,35.5,.0,35.5L14.2,.0z" transform="translate(21.138480,58.346200)"/><path fill="#0868b4" id="shape3" fill-rule="nonzero" d="M.0,23.2L11.0,30.6L11.1,24.1C11.1,24.1,10.6,12.5,9.6,12.5C8.7,12.5,6.3,4.6,6.3,4.6L3.9,.0L3.9,12.5L2.9,16.2L.0,23.2z" transform="translate(71.196120,3.428500)"/><path fill="#104372" id="shape4" fill-rule="nonzero" d="M1.3,92.0L51.9,90.6L82.2,9.5L72.3,.0L33.1,58.6L24.9,64.7C24.9,64.7,4.2,92.0,1.3,92.0C-1.6,92.0,1.3,93.0,1.3,92.0z" transform="translate(0.000100,24.874600)"/><path fill="#14679a" stroke-width="1" id="shape5" stroke="#ffffff" fill-rule="nonzero" d="M32.6,.0L.0,82.7L44.5,83.6L54.3,25.0L32.6,.0z" transform="translate(48.972100,34.005500)"/><path fill="#104372" id="shape6" fill-rule="nonzero" d="M.0,22.1L25.6,23.6L44.8,.0L.0,22.1z" transform="translate(95.383300,93.796800)"/><path fill="#14679a" id="shape7" fill-rule="nonzero" d="M20.7,.0L.0,23.2L19.0,23.9L20.7,.0z" transform="translate(117.118600,93.997400)"/><path fill="#2dacd3" id="shape8" fill-rule="nonzero" d="M35.6,.0C35.6,.0,6.5,49.3,2.7,49.3C-1.2,49.3,.3,29.4,.3,28.5C.3,27.5,35.6,.0,35.6,.0z" transform="translate(34.088700,29.784400)"/><path fill="#217bab" id="shape9" fill-rule="nonzero" d="M3.0,5.4L.0,23.8L42.5,22.8C42.5,22.8,3.4,-8.4,2.5,2.2C1.5,12.9,3.0,5.4,3.0,5.4z" transform="translate(133.422000,93.631100)"/><path fill="#2dacd3" id="shape10" fill-rule="nonzero" d="M26.7,60.5L6.2,35.1L.0,.7C.3,.5,.5,.3,.8,.0C20.9,11.6,64.0,95.5,63.1,95.5C62.3,95.5,34.2,110.2,22.1,116.4L17.2,116.4L26.7,60.5z" transform="translate(75.322000,0.000000)"/></g><path fill="#2196f4" id="shape11" fill-rule="nonzero" d="M222.8,.9C224.2,2.3,236.2,17.6,236.2,17.6C236.2,17.6,240.6,5.4,256.5,9.0C271.0,12.3,275.5,24.6,275.8,26.0C276.9,24.4,299.4,32.3,299.4,32.3C299.4,32.3,341.7,65.3,313.8,109.0C313.2,110.0,312.5,110.9,311.6,111.7L23.4,111.7L21.0,96.4C21.0,96.4,-18.0,71.2,10.4,40.1C18.3,31.4,25.7,29.1,28.7,24.3C36.2,12.1,28.5,7.6,35.4,6.3C45.0,4.5,50.3,.0,50.3,.0L222.8,.9zM275.7,26.1C275.8,26.2,275.8,26.2,275.8,26.0C275.7,26.1,275.7,26.1,275.7,26.1z" transform="translate(395.169000,249.397000)"/><path fill="#0071c1" id="shape12" fill-rule="nonzero" d="M293.6,.0C293.9,6.4,287.4,11.5,288.9,18.1C292.0,30.6,278.5,41.3,265.4,42.0C252.3,42.7,256.8,54.5,256.8,54.5L251.6,102.7L241.8,112.2L239.6,113.1L12.7,113.1C10.9,112.4,10.1,111.8,10.3,111.3C13.2,105.2,10.3,83.0,10.3,83.0C10.3,83.0,-3.5,41.3,.8,32.9C5.1,24.6,5.1,.0,5.1,.0L293.6,.0z" transform="translate(413.254000,360.668500)"/><path fill="#019587" id="shape13" fill-rule="nonzero" d="M233.6,.3L222.0,10.4L221.5,34.5L214.3,45.2L210.5,54.4L207.1,59.5L199.9,68.8L188.3,82.3C188.3,82.3,187.3,99.4,186.9,100.3C186.4,101.3,177.7,105.9,177.7,106.8C177.7,107.4,177.7,110.7,177.7,113.2L58.3,113.9C52.8,103.7,35.6,91.1,35.6,91.1C35.6,91.1,33.7,50.7,36.6,44.2C39.5,37.8,19.7,26.2,19.7,26.2L17.8,20.1L.0,10.9L.7,.0L233.6,.3z" transform="translate(422.528000,472.018000)"/><path fill="#8bc348" id="shape14" fill-rule="nonzero" d="M120.6,.0L120.3,2.1L117.4,6.3C117.4,6.3,108.7,17.8,108.7,19.2C108.7,20.6,106.3,29.0,106.3,29.0L106.3,43.3C106.3,43.3,96.7,54.5,93.8,57.3C90.9,60.0,92.3,65.1,92.3,65.1C92.3,65.1,83.7,75.3,82.7,77.7C81.7,80.0,77.4,93.4,77.4,93.4L69.2,92.0L63.9,88.3L55.0,85.8L42.2,73.5L29.2,58.6L23.0,45.7L18.2,33.6L12.4,23.4L.0,.0L120.6,.0z" transform="translate(479.536000,583.675800)"/><g id="shape15" transform="translate(140.700000,38.547600)"><text style="fill:#045db5;font-family:Microsoft YaHei,PingFang SC,Mircrosoft YaHei,Arial;font-size:32px;font-weight:bold" xml:space="preserve"><tspan x="4.3" textLength="256.0" y="49.0">人才招聘冰山模型</tspan></text></g><g id="shape16" transform="translate(481.112100,187.525000)"><path fill="#045db5" fill-opacity="0.63" fill-rule="nonzero" d="M80.6,50.0C87.3,50.0,92.6,44.6,92.6,38.0L92.6,12.0C92.6,5.4,87.3,.0,80.6,.0L12.0,.0C5.4,.0,.0,5.4,.0,12.0L.0,38.0C.0,44.6,5.4,50.0,12.0,50.0L80.6,50.0z"/><text style="fill:#ffffff;font-family:Microsoft YaHei,PingFang SC,Mircrosoft YaHei,Arial;font-size:19px;font-weight:bold" xml:space="preserve"><tspan x="8.3" textLength="76.0" y="34.0">知识能力</tspan></text></g><g id="shape17" transform="translate(471.648400,281.895000)"><text style="fill:#ffffff;font-family:Microsoft YaHei,PingFang SC,Mircrosoft YaHei,Arial;font-size:19px;font-weight:bold" xml:space="preserve"><tspan x="27.6" textLength="76.0" y="34.0">通用能力</tspan></text></g><g id="shape18" transform="translate(471.648400,393.895000)"><text style="fill:#ffffff;font-family:Microsoft YaHei,PingFang SC,Mircrosoft YaHei,Arial;font-size:19px;font-weight:bold" xml:space="preserve"><tspan x="27.6" textLength="76.0" y="34.0">个性特征</tspan></text></g><g id="shape19" transform="translate(471.648400,509.895000)"><text style="fill:#ffffff;font-family:Microsoft YaHei,PingFang SC,Mircrosoft YaHei,Arial;font-size:19px;font-weight:bold" xml:space="preserve"><tspan x="37.1" textLength="57.0" y="34.0">价值观</tspan></text></g><g id="shape20" transform="translate(471.648400,600.895000)"><text style="fill:#ffffff;font-family:Microsoft YaHei,PingFang SC,Mircrosoft YaHei,Arial;font-size:19px;font-weight:bold" xml:space="preserve"><tspan x="46.6" textLength="38.0" y="34.0">动机</tspan></text></g><path fill="url(#lg1)" id="shape21" fill-rule="nonzero" d="M37.4,18.7C37.4,29.0,29.0,37.4,18.7,37.4C8.4,37.4,.0,29.0,.0,18.7C.0,8.4,8.4,.0,18.7,.0C29.0,.0,37.4,8.4,37.4,18.7z" transform="translate(92.698300,59.000000)"/><g id="shape22" transform="translate(316.169000,133.999900)"><text style="fill:#454545;font-family:Microsoft YaHei,PingFang SC,Mircrosoft YaHei,Arial;font-size:16px" xml:space="preserve"><tspan x="-2.9" textLength="69.7" y="19.0">30% 显性</tspan></text></g><g id="shape23" transform="translate(316.169000,593.383900)"><text style="fill:#454545;font-family:Microsoft YaHei,PingFang SC,Mircrosoft YaHei,Arial;font-size:16px" xml:space="preserve"><tspan x="-2.9" textLength="69.7" y="19.0">70% 隐性</tspan></text></g><path fill="#ffffff" stroke-width="1" id="shape24" stroke="#e5e7eb" fill-rule="nonzero" d="M.0,14.4C.0,6.5,4.7,.0,10.4,.0L249.6,.0C255.3,.0,260.0,6.5,260.0,14.4L260.0,87.9C260.0,95.9,255.3,102.3,249.6,102.3L10.4,102.3C4.7,102.3,.0,95.9,.0,87.9L.0,14.4z" transform="translate(664.135000,122.613700)"/><path fill="url(#lg2)" id="shape25" fill-rule="nonzero" d="M.0,.0L260.0,.0L260.0,36.4L.0,36.4L.0,.0z" transform="translate(664.135000,118.704100)"/><g id="shape26" transform="translate(762.067600,122.248400)"><text style="font-family:Microsoft YaHei,PingFang SC,Mircrosoft YaHei,Arial;font-size:19px;font-weight:bold" xml:space="preserve"><tspan style="fill:#ffffff" x="-2.0" textLength="76.0" y="22.0">专业知识</tspan></text></g><path fill="#ffffff" stroke-width="1" id="shape27" stroke="#e5e7eb" fill-rule="nonzero" d="M.0,14.4C.0,6.5,4.7,.0,10.4,.0L249.6,.0C255.3,.0,260.0,6.5,260.0,14.4L260.0,87.9C260.0,95.9,255.3,102.3,249.6,102.3L10.4,102.3C4.7,102.3,.0,95.9,.0,87.9L.0,14.4z" transform="translate(941.461000,122.613700)"/><path fill="url(#lg2)" id="shape28" fill-rule="nonzero" d="M.0,.0L260.0,.0L260.0,36.4L.0,36.4L.0,.0z" transform="translate(941.461000,118.704100)"/><g id="shape29" transform="translate(1039.393600,122.248400)"><text style="font-family:Microsoft YaHei,PingFang SC,Mircrosoft YaHei,Arial;font-size:19px;font-weight:bold" xml:space="preserve"><tspan style="fill:#ffffff" x="-2.0" textLength="76.0" y="22.0">基本技能</tspan></text></g><g id="shape30" transform="translate(81.698000,201.052000)"><path fill="#eef4ff" stroke-width="1" stroke="#0a73c4" stroke-dasharray="11,5" fill-rule="nonzero" d="M190.2,409.7C196.8,409.7,202.2,404.3,202.2,397.7L202.2,12.0C202.2,5.4,196.8,.0,190.2,.0L12.0,.0C5.4,.0,.0,5.4,.0,12.0L.0,397.7C.0,404.3,5.4,409.7,12.0,409.7L190.2,409.7z"/><circle fill="#454545" cx="14.9" cy="76.8" r="5.0"/><text style="fill:#454545;font-family:Microsoft YaHei,PingFang SC,Mircrosoft YaHei,Arial;font-size:19px" xml:space="preserve"><tspan x="24.4" textLength="152.0" y="85.3">“冰山模型”将个</tspan><tspan x="24.4" textLength="152.0" y="116.8">体素质分为“显性</tspan><tspan x="24.4" textLength="152.0" y="148.2">冰山以上”与“隐</tspan><tspan x="24.4" textLength="152.0" y="179.7">性冰山以下”两部</tspan><tspan x="24.4" textLength="152.0" y="211.1">分，由美国心理学</tspan><tspan x="24.4" textLength="158.6" y="242.6">家麦克利兰于1973</tspan><tspan x="24.4" textLength="152.0" y="274.0">年提出，是人才招</tspan><tspan x="24.4" textLength="152.0" y="305.5">聘、盘点与发展的</tspan><tspan x="24.4" textLength="133.0" y="336.9">核心评估工具。</tspan></text></g><g id="group31" transform="translate(599.835000,578.660300)"><g id="shape32" transform="translate(0.000000,48.734822)"><path stroke-width="2" fill="none" marker-end="url(#edrawArrow_end_19_2_#8bc348)" stroke="#8bc348" d="M.0,.0L131.2,.0"/></g><g id="shape33" transform="translate(160.091000,0.000000)"><text style="fill:#191919;font-family:Microsoft YaHei,PingFang SC,Mircrosoft YaHei,Arial;font-size:19px;font-weight:bold" xml:space="preserve"><tspan x="4.1" textLength="38.0" y="26.2">动机</tspan></text></g><g id="shape34" transform="translate(159.090000,40.480500)"><text style="fill:#454545;font-family:Microsoft YaHei,PingFang SC,Mircrosoft YaHei,Arial;font-size:16px" xml:space="preserve"><tspan x="4.4" textLength="272.0" y="20.6">成就追求、影响力驱动、归属感、成长</tspan><tspan x="4.4" textLength="128.0" y="47.0">渴望等内在偏好。</tspan></text></g></g><g id="group35" transform="translate(656.135000,480.191300)"><g id="shape36" transform="translate(0.000000,48.734822)"><path stroke-width="2" fill="none" marker-end="url(#edrawArrow_end_19_2_#019587)" stroke="#019587" d="M.0,.0L131.2,.0"/></g><g id="shape37" transform="translate(160.091000,0.000000)"><text style="fill:#191919;font-family:Microsoft YaHei,PingFang SC,Mircrosoft YaHei,Arial;font-size:19px;font-weight:bold" xml:space="preserve"><tspan x="4.1" textLength="57.0" y="26.2">价值观</tspan></text></g><g id="shape38" transform="translate(159.090000,40.480500)"><text style="fill:#454545;font-family:Microsoft YaHei,PingFang SC,Mircrosoft YaHei,Arial;font-size:16px" xml:space="preserve"><tspan x="4.4" textLength="272.0" y="20.6">责任意识、协作精神、客户至上、长期</tspan><tspan x="4.4" textLength="128.0" y="47.0">主义等判断标准。</tspan></text></g></g><g id="group39" transform="translate(706.830000,375.326300)"><g id="shape40" transform="translate(0.000000,48.734822)"><path stroke-width="2" fill="none" marker-end="url(#edrawArrow_end_19_2_#0a73c4)" stroke="#0a73c4" d="M.0,.0L131.2,.0"/></g><g id="shape41" transform="translate(160.091000,0.000000)"><text style="fill:#191919;font-family:Microsoft YaHei,PingFang SC,Mircrosoft YaHei,Arial;font-size:19px;font-weight:bold" xml:space="preserve"><tspan x="4.1" textLength="76.0" y="26.2">个人特征</tspan></text></g><g id="shape42" transform="translate(159.090000,40.480500)"><text style="fill:#454545;font-family:Microsoft YaHei,PingFang SC,Mircrosoft YaHei,Arial;font-size:16px" xml:space="preserve"><tspan x="4.4" textLength="272.0" y="20.6">情绪管理、抗压能力、专注力、同理心</tspan><tspan x="4.4" textLength="96.0" y="47.0">等性格特质。</tspan></text></g></g><g id="group43" transform="translate(763.130000,276.856300)"><g id="shape44" transform="translate(0.000000,48.734822)"><path stroke-width="2" fill="none" marker-end="url(#edrawArrow_end_19_2_#2196f4)" stroke="#2196f4" d="M.0,.0L131.2,.0"/></g><g id="shape45" transform="translate(160.091000,0.000000)"><text style="fill:#191919;font-family:Microsoft YaHei,PingFang SC,Mircrosoft YaHei,Arial;font-size:19px;font-weight:bold" xml:space="preserve"><tspan x="4.1" textLength="76.0" y="26.2">通用能力</tspan></text></g><g id="shape46" transform="translate(159.090000,40.480500)"><text style="fill:#454545;font-family:Microsoft YaHei,PingFang SC,Mircrosoft YaHei,Arial;font-size:16px" xml:space="preserve"><tspan x="4.4" textLength="272.0" y="20.6">逻辑思维、沟通表达、跨部门协作、问</tspan><tspan x="4.4" textLength="144.0" y="47.0">题解决等综合素养。</tspan></text></g></g><path stroke-width="1" fill="none" id="shape47" stroke="#3773f7" stroke-dasharray="6,4" d="M.0,.0L909.1,.0" transform="translate(305.374000,251.826940)"/><g id="shape48" transform="translate(348.669000,242.333000)"><path stroke-width="2" fill="none" marker-end="url(#edrawArrow_end_4_2_#89a3fe)" stroke="#89a3fe" d="M.0,.0L.5,-70.9"/></g><g id="shape49" transform="translate(348.669000,564.444000)"><path stroke-width="2" fill="none" stroke="#0462be" marker-start="url(#edrawArrow_begin_4_2_#0462be)" d="M.0,.0L.0,-291.1"/></g><g id="shape50" transform="translate(594.835000,199.878922)"><path stroke-width="2" fill="none" marker-end="url(#edrawArrow_end_19_2_#9770f8)" stroke="#9770f8" d="M.0,.0L56.3,.0"/></g><g id="shape51" transform="translate(664.135000,160.415600)"><text style="fill:#454545;font-family:Microsoft YaHei,PingFang SC,Mircrosoft YaHei,Arial;font-size:16px" xml:space="preserve"><tspan x="4.5" textLength="246.8" y="20.6">学习/实践积累的认知经验，如行业</tspan><tspan x="4.5" textLength="240.0" y="47.0">方法论、业务流程、管理体系等。</tspan></text></g><g id="shape52" transform="translate(943.461000,161.415600)"><text style="fill:#454545;font-family:Microsoft YaHei,PingFang SC,Mircrosoft YaHei,Arial;font-size:16px" xml:space="preserve"><tspan x="4.5" textLength="240.0" y="20.6">工作所需实操技术，如数据分析工</tspan><tspan x="4.5" textLength="224.0" y="47.0">具、语言能力、办公自动化等。</tspan></text></g></g></svg>